<svg width="20" height="20" viewBox="0 0 20 20" fill="none" xmlns="http://www.w3.org/2000/svg">
<path id="Vector" d="M9.99138 19.3886C7.42738 19.3865 4.96219 18.453 3.1051 16.7809C1.24801 15.1087 0.140918 12.8258 0.012551 10.4037C-0.115816 7.98163 0.744348 5.60543 2.41534 3.76604C4.08632 1.92666 6.44046 0.764625 8.99138 0.52002V4.34122C7.90668 4.51478 6.8934 4.96735 6.06254 5.64936C5.23168 6.33136 4.61528 7.21648 4.28086 8.20778C3.94645 9.19907 3.90692 10.2583 4.16661 11.2694C4.42629 12.2806 4.97517 13.2046 5.75313 13.9403C6.53108 14.676 7.5081 15.195 8.57716 15.4405C9.64623 15.686 10.7661 15.6484 11.8141 15.332C12.8621 15.0155 13.7978 14.4324 14.5188 13.6464C15.2397 12.8605 15.718 11.902 15.9014 10.876H19.9404C19.6892 13.2078 18.533 15.3688 16.6952 16.9411C14.8574 18.5134 12.4685 19.3855 9.99039 19.3886H9.99138ZM19.9414 8.98435H15.9014C15.6938 7.82411 15.1095 6.75375 14.2297 5.92175C13.3499 5.08975 12.2181 4.53736 10.9914 4.34122V0.52002C13.2848 0.741888 15.4272 1.7048 17.0575 3.24647C18.6878 4.78814 19.7063 6.81428 19.9414 8.9834V8.98435Z" fill="#FB6B6C"/>
</svg>
