<svg width="20" height="18" viewBox="0 0 20 18" fill="none" xmlns="http://www.w3.org/2000/svg">
<path id="Vector" d="M18.8301 6.55117L13.0132 5.80047L10.4129 1.11922C10.3418 0.991048 10.225 0.887292 10.0807 0.824224C9.71867 0.665538 9.27879 0.797776 9.0978 1.11922L6.49747 5.80047L0.680533 6.55117C0.520161 6.57152 0.373535 6.63865 0.261274 6.74038C0.125557 6.86425 0.0507706 7.03089 0.0533482 7.2037C0.0559257 7.37651 0.135656 7.54134 0.27502 7.66198L4.48365 11.3057L3.48934 16.4508C3.46603 16.5704 3.48094 16.6935 3.5324 16.8061C3.58385 16.9186 3.66979 17.0161 3.78046 17.0875C3.89113 17.1589 4.02212 17.2013 4.15855 17.2099C4.29499 17.2186 4.43142 17.1931 4.55238 17.1364L9.75532 14.7072L14.9583 17.1364C15.1003 17.2035 15.2653 17.2259 15.4233 17.2015C15.822 17.1404 16.09 16.8048 16.0213 16.4508L15.027 11.3057L19.2356 7.66198C19.3502 7.56229 19.4258 7.43209 19.4487 7.28967C19.5106 6.93365 19.231 6.60407 18.8301 6.55117Z" fill="#FFC700"/>
</svg>
