<svg width="155" height="17" viewBox="0 0 155 17" fill="none" xmlns="http://www.w3.org/2000/svg">
<g id="Element 16" clip-path="url(#clip0_1_142)">
<path id="Vector" d="M154.636 5.02968C153.852 4.92244 153.131 4.91013 152.345 4.89669C151.559 4.88326 150.84 4.77714 150.056 4.6699C148.356 4.45318 146.723 4.14378 145.023 3.92706C141.82 3.49699 138.552 3.06579 135.344 2.91713C132.4 2.67914 129.388 2.53384 126.441 2.48347C125.655 2.47003 124.869 2.4566 124.148 2.44429C121.199 2.48772 118.251 2.43734 115.302 2.48077C108.42 2.64464 101.472 2.8074 94.5867 3.15889C87.8321 3.51261 81.0776 3.86634 74.3869 4.31499C71.1071 4.54043 67.7618 4.76476 64.482 4.9902C60.8714 5.39766 57.2641 5.61751 53.7207 5.93228C46.3047 6.65004 38.9559 7.2751 31.5399 7.99286C25.108 8.6336 18.7369 9.55688 12.3609 10.7616C8.28386 11.6302 4.13971 12.5916 0.0610548 13.554C4.70356 14.1025 9.41637 14.3707 14.1308 14.5452C17.2093 14.5978 20.2894 14.5566 23.304 14.5143C25.2706 14.454 27.2389 14.3 29.2726 14.1471C30.5187 14.0746 31.7009 13.9071 32.8831 13.7396C36.1006 13.3255 39.3821 13.0062 42.5996 12.592C46.3411 12.1868 50.0188 11.6867 53.7603 11.2815C57.5673 10.8774 61.4398 10.4744 65.2469 10.0703C68.6593 9.75326 72.1372 9.43737 75.6152 9.12148C78.9621 8.80335 82.3729 8.58014 85.7182 8.35581C89.1291 8.13261 92.4744 7.90828 95.8852 7.68508C99.3615 7.46299 102.769 7.4274 106.244 7.29912C112.538 7.03136 118.828 7.04502 125.183 7.0598C128.72 7.12025 132.195 6.99197 135.735 6.86481C139.21 6.73653 142.684 6.60825 146.095 6.38505C147.472 6.31475 148.915 6.24557 150.294 6.08147C150.95 5.99886 151.672 5.91736 152.331 5.74095C152.923 5.56341 153.518 5.29207 154.109 5.20834C154.307 5.11789 154.439 5.02632 154.636 5.02968Z" fill="#3EC4FF"/>
</g>
<defs>
<clipPath id="clip0_1_142">
<rect width="154.407" height="13.9791" fill="white" transform="translate(0.287109 0.327393) rotate(0.979139)"/>
</clipPath>
</defs>
</svg>
